# xmcd CD database file
#
# Track frame offsets:
#	150
#	17203
#	35476
#	55781
#	69300
#	87833
#	110135
#	127944
#	146126
#	167452
#	181027
#	199043
#	223660
#	235702
#	255904
#	270283
#	283313
#	301039
#	324574
#	341827
#
# Disc length: 4789 seconds
#
# Revision: 0
# Processed by: cddbd v1.5.1PL2 Copyright (c) Steve Scherf et al.
# Submitted via: CDex 1.51
#
DISCID=1812b314
DTITLE=Various Artist - 3 Grandes Salseros Venezolanos CD 3
DYEAR=2006
DGENRE=Salsa
TTITLE0=Llorarás - Dimensión Latina
TTITLE1=Adolescentes - Arrepentida
TTITLE2=Oscar D'León - Siéntate Ahí
TTITLE3=Dimensión Latina - Vuelta Y Vuelta
TTITLE4=Adolescentes - Celos Y Dinastías
TTITLE5=Oscar D'León - Mi Bajo Y Yo
TTITLE6=Dimensión Latina - El Frutero
TTITLE7=Adolescentes - Hoy Aprendí
TTITLE8=Oscar D'León - Que Se Sienta
TTITLE9=Dimensión Latina - Pensando En Ti
TTITLE10=Adolescentes - Mírame
TTITLE11=Oscar D'León - Bravo De Verdad
TTITLE12=Dimensión Latina - Ya Verás
TTITLE13=Adolescentes - Virgen
TTITLE14=Oscar D'León - Parrampampam
TTITLE15=Dimensión Latina - Ocho Días
TTITLE16=Adolescentes - Recuerdos
TTITLE17=Oscar D'León - Calculadora
TTITLE18=Dimensión Latina - Sigue Tu Camino
TTITLE19=Adolescentes - Confesiones
EXTD=YEAR: 2006
EXTT0=
EXTT1=
EXTT2=
EXTT3=
EXTT4=
EXTT5=
EXTT6=
EXTT7=
EXTT8=
EXTT9=
EXTT10=
EXTT11=
EXTT12=
EXTT13=
EXTT14=
EXTT15=
EXTT16=
EXTT17=
EXTT18=
EXTT19=
PLAYORDER=
